{"title":"Darr @ The Mall 2014 Hindi HDRIP 480P GOPI SAHI","uid":10265448,"size":284829976,"categoryP":"video","categoryS":"movies","magnet":"?xt=urn:btih:c0a81644642dc282b74e3eab9455bc7cd79de222&amp;dn=Darr+%40+The+Mall+2014+Hindi+HDRIP+480P+GOPI+SAHI&amp;tr=udp%3A%2F%2Ftracker.openbittorrent.com%3A80&amp;tr=udp%3A%2F%2Fopen.demonii.com%3A1337&amp;tr=udp%3A%2F%2Ftracker.coppersurfer.tk%3A6969&amp;tr=udp%3A%2F%2Fexodus.desync.com%3A6969","seeders":0,"leechers":1,"uploader":"jatt13","files":1,"time":1401518050,"description":"Video\nID                             : 2\nFormat                         : AVC\nFormat/Info                    : Advanced Video Codec\nFormat profile                 : &lt;a class=&quot;__cf_email__&quot; href=&quot;/cdn-cgi/l/email-protection&quot; data-cfemail=&quot;eea6878986aea2dcc0df&quot;&gt;[email&amp;#160;protected]&lt;/a&gt;&lt;script cf-hash='f9e31' type=&quot;text/javascript&quot;&gt;\n/* &lt;![CDATA[ */!function(){try{var t=&quot;currentScript&quot;in document?document.currentScript:function(){for(var t=document.getElementsByTagName(&quot;script&quot;),e=t.length;e--;)if(t[e].getAttribute(&quot;cf-hash&quot;))return t[e]}();if(t&amp;&amp;t.previousSibling){var e,r,n,i,c=t.previousSibling,a=c.getAttribute(&quot;data-cfemail&quot;);if(a){for(e=&quot;&quot;,r=parseInt(a.substr(0,2),16),n=2;a.length-n;n+=2)i=parseInt(a.substr(n,2),16)^r,e+=String.fromCharCode(i);e=document.createTextNode(e),c.parentNode.replaceChild(e,c)}}}catch(u){}}();/* ]]&gt; */&lt;/script&gt;\nFormat settings, CABAC         : Yes\nFormat settings, ReFrames      : 4 frames\nCodec ID                       : V_MPEG4/ISO/AVC\nDuration                       : 2h 2mn\nBit rate                       : 256 Kbps\nWidth                          : 640 pixels\nHeight                         : 272 pixels\nDisplay aspect ratio           : 2.35:1\nFrame rate mode                : Constant\nFrame rate                     : 23.976 fps\nColor space                    : YUV\nChroma subsampling             : 4:2:0\nBit depth                      : 8 bits\nScan type                      : Progressive\nBits/(Pixel*Frame)             : 0.061\nStream size                    : 224 MiB (83%)\nTitle                          : GOPI SAHI\nWriting library                : x264 core 138\nDefault                        : Yes\nForced                         : No\n\nAudio\nID                             : 1\nFormat                         : MPEG Audio\nFormat version                 : Version 1\nFormat profile                 : Layer 3\nMode                           : Joint stereo\nMode extension                 : MS Stereo\nCodec ID                       : A_MPEG/L3\nCodec ID/Hint                  : MP3\nDuration                       : 2h 2mn\nBit rate mode                  : Constant\nBit rate                       : 48.0 Kbps\nChannel count                  : 2 channels\nSampling rate                  : 44.1 KHz\nCompression mode               : Lossy\nDelay relative to video        : -83ms\nStream size                    : 42.0 MiB (15%)\nTitle                          : GOPI SAHI\nWriting library                : LAME3.98.2\nLanguage                       : Hindi\nDefault                        : Yes\nForced                         : No\n[IMG]http://i.imgur.com/Oav8hPh.jpg[/IMG]\n[IMG]http://i.imgur.com/x8Gxu6O.jpg[/IMG]\n[IMG]http://i.imgur.com/EPzLaDp.jpg[/IMG]\n[IMG]http://i.imgur.com/Urqe8Zs.jpg[/IMG]\n[IMG]http://i.imgur.com/sAyDUTa.jpg[/IMG]\n[IMG]http://i.imgur.com/g3GABOb.jpg[/IMG]","torrent":{"xt":"urn:btih:c0a81644642dc282b74e3eab9455bc7cd79de222","amp;dn":"Darr+%40+The+Mall+2014+Hindi+HDRIP+480P+GOPI+SAHI","amp;tr":["udp%3A%2F%2Ftracker.openbittorrent.com%3A80","udp%3A%2F%2Fopen.demonii.com%3A1337","udp%3A%2F%2Ftracker.coppersurfer.tk%3A6969","udp%3A%2F%2Fexodus.desync.com%3A6969"],"infoHash":"c0a81644642dc282b74e3eab9455bc7cd79de222","infoHashBuffer":{"type":"Buffer","data":[192,168,22,68,100,45,194,130,183,78,62,171,148,85,188,124,215,157,226,34]},"announce":[],"urlList":[]}}